<?xml version="1.0" standalone="no"?>
<!DOCTYPE svg PUBLIC "-//W3C//DTD SVG 20010904//EN"
 "http://www.w3.org/TR/2001/REC-SVG-20010904/DTD/svg10.dtd">
<svg version="1.0" xmlns="http://www.w3.org/2000/svg"
 width="824.000000pt" height="610.000000pt" viewBox="0 0 824.000000 610.000000"
 preserveAspectRatio="xMidYMid meet">
<metadata>
Created by potrace 1.15, written by Peter Selinger 2001-2017
</metadata>
<g transform="translate(0.000000,610.000000) scale(0.100000,-0.100000)"
fill="#000000" stroke="none">
<path d="M0 4305 c0 -1764 0 -1794 19 -1805 33 -17 45 -11 72 34 18 29 47 55
90 81 35 21 100 66 144 100 44 34 108 81 143 105 l64 43 62 -62 c54 -53 69
-63 107 -68 58 -6 91 -19 173 -66 66 -38 71 -39 105 -27 20 6 60 28 89 47 30
19 128 75 218 124 181 98 173 97 233 35 19 -20 39 -36 43 -36 5 0 33 16 62 36
38 25 79 69 137 146 77 102 100 124 310 294 125 101 230 184 232 184 3 0 7
-15 11 -32 24 -131 72 -306 87 -320 9 -10 24 -41 33 -70 59 -201 83 -275 92
-291 7 -12 39 -24 105 -38 79 -16 115 -18 227 -13 72 4 132 5 132 2 0 -3 -52
-57 -116 -120 -85 -84 -141 -130 -207 -169 -50 -30 -125 -87 -167 -126 -42
-40 -81 -73 -87 -73 -6 0 -84 39 -174 87 -112 61 -182 106 -227 147 -36 32
-137 106 -226 165 -88 58 -175 117 -192 130 l-31 23 -52 -26 c-28 -15 -51 -30
-50 -34 0 -4 28 -25 61 -47 l61 -40 45 -125 c47 -133 62 -155 152 -224 48 -37
77 -49 220 -89 91 -26 215 -56 275 -67 61 -12 144 -30 187 -41 66 -18 83 -19
125 -9 26 6 61 13 77 15 28 3 253 -7 426 -20 l75 -5 -85 43 c-47 23 -121 59
-165 78 -79 36 -81 37 -118 107 l-37 70 137 148 c76 82 153 162 171 178 19 16
44 53 57 80 13 28 33 65 45 83 l21 31 -113 38 c-107 35 -121 43 -270 155
l-158 118 -47 -55 c-26 -30 -50 -54 -55 -54 -4 0 -33 44 -64 98 -31 53 -64
109 -75 123 -21 31 -69 146 -69 166 0 25 98 -37 141 -88 33 -40 166 -149 181
-149 3 0 34 28 70 63 36 34 123 116 193 182 133 124 167 166 336 412 57 81
127 183 158 226 l55 79 46 -45 c25 -25 74 -73 110 -108 73 -71 261 -314 336
-434 40 -65 63 -89 133 -141 48 -34 97 -65 111 -68 30 -6 193 -154 275 -251
33 -38 92 -103 132 -143 39 -40 96 -107 126 -150 55 -77 164 -184 430 -421
131 -117 158 -148 120 -137 -10 2 -97 25 -193 50 -302 79 -294 75 -379 160
-70 69 -85 79 -201 127 -73 31 -133 63 -145 77 -11 14 -67 75 -125 137 -108
115 -184 207 -459 550 -88 110 -171 208 -184 217 -14 10 -29 36 -37 63 -14 50
-22 46 -35 -15 -8 -35 -113 -284 -185 -437 l-39 -83 32 0 c24 0 55 -18 127
-72 52 -40 138 -100 190 -135 52 -35 105 -70 118 -79 13 -9 30 -31 39 -49 12
-25 53 -57 173 -134 87 -56 181 -122 211 -147 29 -25 124 -93 211 -151 87 -58
158 -110 158 -115 0 -16 -84 0 -174 34 -83 31 -119 41 -316 90 -109 26 -117
30 -155 72 -83 91 -125 133 -192 193 l-70 63 -147 -114 c-81 -63 -167 -126
-191 -140 -24 -14 -53 -39 -64 -55 -11 -15 -43 -43 -70 -62 -28 -19 -51 -37
-51 -41 0 -4 30 -16 67 -28 44 -13 102 -45 171 -92 l105 -71 89 -8 c100 -9
212 6 438 60 123 30 125 30 210 16 86 -15 338 -46 531 -67 69 -7 128 -7 170
-2 68 10 128 7 599 -30 157 -13 287 -21 289 -19 2 1 -27 31 -64 65 -38 35
-121 123 -185 196 l-117 133 -6 67 c-5 67 -49 296 -68 362 -6 20 -29 51 -55
74 l-43 38 -76 -26 c-41 -14 -82 -26 -91 -26 -8 0 -102 87 -207 193 -205 207
-338 327 -362 327 -8 0 -19 17 -26 40 -9 31 -15 37 -28 31 -35 -18 -204 -61
-239 -61 -38 0 -92 19 -92 32 0 10 47 42 108 72 28 14 96 56 149 92 l98 67 63
-69 c35 -38 74 -84 86 -103 17 -26 38 -40 89 -60 63 -24 83 -42 301 -253 l234
-228 37 16 c20 8 63 28 96 44 l59 28 27 -32 c16 -18 42 -42 58 -52 17 -10 102
-82 190 -159 88 -77 202 -176 253 -219 l93 -80 52 26 c29 14 84 55 123 92 40
36 78 66 84 66 7 0 36 -13 64 -30 42 -23 58 -28 82 -21 33 9 54 -3 271 -146
67 -45 140 -91 162 -104 23 -12 41 -28 41 -35 0 -23 -68 -27 -381 -22 l-307 5
-44 26 c-23 14 -67 46 -95 70 l-52 45 -109 -58 c-60 -31 -130 -65 -156 -75
-25 -10 -46 -20 -46 -24 1 -3 21 -21 47 -40 32 -23 57 -34 87 -35 27 -2 101
-30 225 -87 l183 -85 87 24 c47 13 118 34 156 46 69 23 72 23 169 7 l98 -15
81 28 c45 15 132 53 193 83 l112 55 182 -91 c161 -80 188 -91 235 -91 30 0 85
-11 127 -25 85 -29 168 -40 350 -51 l128 -7 0 2002 0 2001 -4120 0 -4120 0 0
-1795z"/>
<path d="M3391 4023 c-129 -198 -287 -416 -353 -487 -32 -36 -103 -102 -156
-147 -109 -92 -192 -170 -192 -179 0 -8 202 -168 255 -203 22 -14 89 -42 148
-63 60 -20 111 -43 114 -50 3 -7 -6 -28 -20 -46 -14 -18 -36 -58 -50 -88 -13
-31 -38 -67 -55 -82 -37 -31 -302 -315 -302 -324 0 -3 15 -33 32 -67 30 -55
38 -63 98 -90 174 -78 291 -137 287 -144 -3 -4 -119 -2 -257 6 -208 12 -265
12 -324 2 -88 -16 -75 -17 -176 8 -47 12 -141 32 -208 47 -68 14 -188 44 -267
66 -142 40 -144 42 -222 108 l-78 66 -46 130 -47 129 -72 48 -73 49 29 19 c16
10 41 24 56 30 16 6 28 15 28 19 0 10 -77 80 -88 80 -11 0 -299 -157 -336
-183 -15 -11 -51 -32 -78 -47 l-50 -27 39 -24 c21 -13 83 -65 138 -116 71 -67
111 -96 140 -104 36 -10 225 -135 240 -159 7 -11 -77 -12 -165 -2 -104 13
-394 -24 -461 -59 -32 -16 -78 -23 -227 -34 -103 -8 -194 -15 -202 -15 -8 0
-68 43 -134 95 -65 52 -124 95 -131 95 -14 0 -135 127 -135 141 0 12 47 11 95
-2 22 -5 98 -40 169 -76 l130 -66 98 32 c139 46 243 120 279 199 16 35 36 63
53 71 l26 14 -80 44 c-46 25 -108 50 -146 58 -65 14 -77 20 -156 93 l-36 34
-47 -32 c-26 -18 -73 -53 -104 -79 -31 -25 -98 -73 -149 -107 -76 -50 -100
-72 -123 -112 l-29 -51 -35 15 -35 14 0 -1235 0 -1235 4120 0 4120 0 0 1034 0
1034 -62 6 c-35 3 -126 10 -204 16 -102 7 -161 17 -214 35 -42 14 -96 25 -126
25 -46 0 -75 11 -243 95 l-190 94 -83 -43 c-46 -24 -128 -61 -182 -81 l-99
-37 -99 18 -98 17 -93 -27 c-50 -16 -121 -37 -157 -48 l-66 -20 -189 87 c-129
60 -202 88 -229 89 -31 1 -54 11 -93 41 -28 22 -52 43 -52 47 -1 3 45 29 102
56 56 28 126 63 154 79 l53 29 -133 111 c-72 61 -180 153 -238 205 -59 53
-124 108 -145 123 -22 16 -51 41 -65 57 l-26 29 -87 -38 -88 -38 45 -40 c41
-38 46 -48 65 -130 30 -129 52 -260 52 -314 0 -44 5 -51 91 -151 50 -58 139
-153 197 -212 92 -93 103 -108 82 -108 -14 0 -167 12 -340 26 -206 17 -384 26
-515 25 -175 0 -241 5 -523 40 l-323 40 -82 -20 c-167 -40 -386 -83 -396 -77
-3 2 -39 7 -80 10 -41 4 -79 10 -85 13 -6 3 -55 36 -110 72 -54 37 -130 77
-170 91 -39 14 -71 30 -71 37 0 6 26 30 57 53 32 22 63 50 68 61 6 11 44 41
83 66 40 25 92 62 117 83 85 70 219 170 227 170 4 0 24 -17 43 -36 19 -20 58
-54 87 -75 28 -21 75 -68 105 -103 61 -76 77 -84 243 -121 66 -14 161 -41 210
-60 156 -58 157 -53 10 46 -78 52 -163 113 -190 137 -28 23 -119 87 -203 141
-122 78 -159 108 -181 143 -19 29 -47 55 -82 75 -30 17 -121 81 -204 142 -118
87 -157 111 -182 111 -18 0 -33 4 -33 9 0 5 18 47 39 93 73 154 178 403 186
438 4 19 13 46 20 59 12 24 13 23 35 -38 14 -36 34 -71 50 -84 29 -23 106
-116 255 -307 142 -183 264 -327 372 -441 55 -58 106 -116 112 -128 13 -23
143 -89 224 -113 30 -9 67 -36 128 -95 70 -67 96 -86 138 -99 117 -34 385
-104 388 -100 2 2 -52 53 -120 112 -235 206 -352 319 -401 389 -27 38 -79 99
-115 135 -37 36 -100 105 -141 153 -87 103 -236 242 -274 257 -27 10 -153 94
-192 127 -11 10 -40 50 -64 88 -58 94 -278 381 -338 439 -26 26 -65 65 -87 87
l-40 40 -84 -128z"/>
<path d="M4395 3625 c-49 -35 -116 -76 -148 -91 -31 -15 -56 -33 -54 -38 7
-23 73 -16 187 18 66 20 121 36 123 36 2 0 9 -18 16 -40 7 -22 18 -40 26 -40
24 0 179 -141 371 -336 l181 -184 53 16 c77 23 100 32 99 41 -1 5 -103 106
-229 227 -219 209 -230 219 -295 241 -37 12 -72 30 -77 39 -19 34 -142 176
-152 175 -6 -1 -51 -29 -101 -64z"/>
<path d="M2105 3273 c-105 -85 -199 -161 -210 -169 -11 -7 -60 -67 -110 -133
-66 -87 -103 -127 -137 -148 -26 -15 -48 -30 -48 -33 0 -3 85 -63 189 -132
104 -70 215 -151 247 -181 33 -30 77 -63 99 -75 22 -11 96 -52 164 -91 l124
-71 67 62 c37 35 113 92 171 128 74 46 133 93 204 165 l101 100 -146 0 c-227
0 -311 24 -326 95 -22 97 -90 308 -104 320 -16 14 -80 245 -80 289 0 11 -4 22
-8 25 -4 2 -93 -65 -197 -151z"/>
<path d="M2373 3410 c8 -30 168 -310 178 -310 9 0 93 100 88 104 -2 1 -35 24
-72 50 -37 27 -86 70 -109 97 -22 27 -52 56 -66 65 -24 16 -25 16 -19 -6z"/>
<path d="M6277 2655 c-38 -35 -86 -72 -108 -82 -21 -9 -39 -20 -39 -24 0 -9
103 -89 140 -110 19 -10 96 -14 335 -17 l310 -3 -35 22 c-19 12 -87 56 -150
97 -185 121 -209 134 -241 127 -22 -5 -42 1 -83 24 -29 17 -55 31 -57 31 -2
-1 -35 -30 -72 -65z"/>
<path d="M923 2569 c-21 -13 -37 -36 -49 -70 -16 -43 -29 -57 -101 -110 -64
-46 -107 -68 -184 -94 l-101 -34 -130 65 c-116 59 -228 102 -228 87 0 -16 94
-113 109 -113 9 0 44 -23 76 -51 33 -28 87 -71 119 -97 l59 -45 191 12 c151
10 198 17 228 32 78 40 356 73 493 59 49 -5 91 -8 92 -6 8 7 -185 126 -204
126 -24 0 -58 26 -153 115 -36 34 -92 80 -126 102 l-60 41 -31 -19z"/>
</g>
</svg>
